HIERARCHY
ROOT Hips
{
	OFFSET 0.000000 0.000000 0.000000
	CHANNELS 6 Xposition Yposition Zposition Zrotation Yrotation Xrotation 
	JOINT LHipJoint
	{
		OFFSET 0.000000 0.000000 0.000000
		CHANNELS 3 Zrotation Yrotation Xrotation
		JOINT LeftUpLeg
		{
			OFFSET 1.363060 -1.794630 0.839290
			CHANNELS 3 Zrotation Yrotation Xrotation
			JOINT LeftLeg
			{
				OFFSET 2.448110 -6.726130 0.000000
				CHANNELS 3 Zrotation Yrotation Xrotation
				JOINT LeftFoot
				{
					OFFSET 2.562200 -7.039590 0.000000
					CHANNELS 3 Zrotation Yrotation Xrotation
					JOINT LeftToeBase
					{
						OFFSET 0.157640 -0.433110 2.322550
						CHANNELS 3 Zrotation Yrotation Xrotation
						End Site
						{
							OFFSET 0.000000 0.000000 0.000000
						}
					}
				}
			}
		}
	}
	JOINT RHipJoint
	{
		OFFSET 0.000000 0.000000 0.000000
		CHANNELS 3 Zrotation Yrotation Xrotation
		JOINT RightUpLeg
		{
			OFFSET -1.305520 -1.794630 0.839290
			CHANNELS 3 Zrotation Yrotation Xrotation
			JOINT RightLeg
			{
				OFFSET -2.542530 -6.985550 0.000000
				CHANNELS 3 Zrotation Yrotation Xrotation
				JOINT RightFoot
				{
					OFFSET -2.568260 -7.056230 0.000000
					CHANNELS 3 Zrotation Yrotation Xrotation
					JOINT RightToeBase
					{
						OFFSET -0.164730 -0.452590 2.363150
						CHANNELS 3 Zrotation Yrotation Xrotation
						End Site
						{
							OFFSET 0.000000 0.000000 0.000000
						}
					}
				}
			}
		}
	}
}
MOTION
Frames: 16
Frame Time: 0.008333
4.702532 17.439656 1.173711 -176.656581 -55.974068 -164.133406 -11.269712 1.971650 -5.159244 -13.011209 33.499494 -19.337781 -3.624878 -0.978945 -5.170002 1.730879 13.306229 3.364556 2.648100 -0.000000 -38.192600 9.403851 0.255377 3.578757 0.300722 10.832276 -23.395993 3.002950 1.235274 -3.460414 1.515564 8.137628 15.115715 2.301600 -0.000000 -67.255800
4.715145 17.438884 1.179555 -176.789063 -55.981026 -163.976437 -11.246460 1.960442 -5.190523 -13.119179 33.411491 -19.421286 -3.630151 -0.970601 -5.057145 1.738043 13.330415 3.291135 2.638500 -0.000000 -38.070200 9.412297 0.277980 3.568196 0.167932 10.910121 -23.500820 2.972868 1.219392 -3.388825 1.498921 8.015940 15.102326 2.257800 0.000000 -67.271900
4.727949 17.438287 1.184248 -176.933568 -55.995414 -163.823042 -11.224089 1.948368 -5.213209 -13.216495 33.304004 -19.505148 -3.632744 -0.960487 -4.904766 1.749100 13.379361 3.200125 2.630100 0.000000 -37.933100 9.419012 0.296151 3.558906 0.042478 10.970698 -23.589478 2.944047 1.203749 -3.324142 1.483572 7.909753 15.089171 2.220100 -0.000000 -67.292100
4.740957 17.437836 1.188005 -177.089201 -56.017518 -163.675403 -11.203209 1.935334 -5.227216 -13.301553 33.175749 -19.586957 -3.632220 -0.948605 -4.715173 1.764304 13.454099 3.090959 2.622900 -0.000000 -37.782700 9.423597 0.310213 3.550195 -0.074917 11.013880 -23.659184 2.916765 1.188660 -3.268786 1.469489 7.817635 15.077437 2.187900 0.000000 -67.315700
4.754148 17.437423 1.191063 -177.253507 -56.046202 -163.537086 -11.184442 1.921240 -5.233885 -13.371740 33.029544 -19.663451 -3.628501 -0.934821 -4.491312 1.783452 13.552631 2.963792 2.616100 -0.000000 -37.623900 9.425908 0.320985 3.540214 -0.181736 11.037695 -23.708175 2.891517 1.174076 -3.220369 1.457055 7.742824 15.065525 2.162300 -0.000000 -67.343400
4.767439 17.436996 1.193623 -177.423395 -56.079432 -163.408403 -11.167720 1.905891 -5.234469 -13.427204 32.864857 -19.733787 -3.621381 -0.919207 -4.237848 1.806753 13.675549 2.819568 2.610001 -0.000000 -37.456900 9.425957 0.329506 3.528409 -0.279422 11.047052 -23.735950 2.868207 1.160365 -3.182009 1.445902 7.680651 15.054905 2.141500 -0.000000 -67.373600
4.780804 17.436461 1.195883 -177.596589 -56.114489 -163.290275 -11.153052 1.889303 -5.231259 -13.467771 32.685539 -19.796305 -3.611123 -0.901773 -3.959375 1.833918 13.820470 2.659612 2.603900 -0.000001 -37.287100 9.424014 0.336965 3.513396 -0.368206 11.043797 -23.743292 2.846860 1.147463 -3.151669 1.436108 7.631562 15.044210 2.125500 0.000001 -67.406900
4.794052 17.435758 1.197954 -177.768408 -56.148163 -163.182022 -11.140306 1.871563 -5.226393 -13.494902 32.495760 -19.851478 -3.598252 -0.882747 -3.661274 1.864522 13.984334 2.486278 2.597500 0.000000 -37.117400 9.420307 0.344217 3.494772 -0.449149 11.032026 -23.732959 2.827432 1.135449 -3.128348 1.427629 7.594625 15.032627 2.113800 0.000000 -67.442801
4.807288 17.434842 1.199906 -177.938644 -56.177555 -163.082663 -11.128829 1.852548 -5.222342 -13.510591 32.300001 -19.900380 -3.583388 -0.862248 -3.348305 1.897987 14.163368 2.302368 2.590500 0.000000 -36.951300 9.415283 0.352210 3.472502 -0.524602 11.017674 -23.707362 2.809448 1.124332 -3.112644 1.420075 7.565840 15.020356 2.104999 0.000000 -67.481400
4.820234 17.433697 1.201703 -178.105752 -56.200367 -162.987331 -11.118015 1.832621 -5.220763 -13.519964 32.103675 -19.945544 -3.567611 -0.840936 -3.026028 1.933472 14.353079 2.111838 2.582800 0.000000 -36.792200 9.409692 0.361130 3.446914 -0.596361 11.000930 -23.674732 2.792617 1.113582 -3.098184 1.413772 7.549440 15.003898 2.100300 0.000000 -67.522300
4.832939 17.432321 1.203365 -178.267676 -56.214929 -162.895825 -11.107349 1.811575 -5.223541 -13.524222 31.911199 -19.988657 -3.551525 -0.818942 -2.698515 1.970318 14.549342 1.917378 2.574000 0.000000 -36.640800 9.403664 0.371289 3.419160 -0.667006 10.990624 -23.636128 2.776383 1.103438 -3.088925 1.407966 7.537530 14.986052 2.097100 -0.000000 -67.565400
4.845253 17.430716 1.204761 -178.426638 -56.220193 -162.801497 -11.095967 1.789822 -5.231051 -13.530251 31.726486 -20.033859 -3.536182 -0.797087 -2.370582 2.007709 14.748457 1.723430 2.564700 0.000000 -36.499200 9.398025 0.382330 3.390468 -0.738583 10.984965 -23.602443 2.760294 1.093075 -3.076263 1.403058 7.535604 14.962687 2.097200 0.000000 -67.610500
4.857196 17.428965 1.205891 -178.580863 -56.215439 -162.704806 -11.083712 1.767357 -5.244188 -13.538483 31.553038 -20.081926 -3.521979 -0.775436 -2.045235 2.045057 14.947047 1.532618 2.554700 -0.000001 -36.366500 9.392732 0.394129 3.362158 -0.812825 10.990442 -23.573538 2.743926 1.082720 -3.064091 1.398343 7.536241 14.936978 2.098201 -0.000000 -67.657200
4.868638 17.427069 1.206634 -178.732748 -56.200751 -162.599931 -11.070086 1.744624 -5.261875 -13.554556 31.391998 -20.136963 -3.509574 -0.754707 -1.725887 2.081842 15.142855 1.347708 2.544500 0.000000 -36.242900 9.388192 0.406048 3.335933 -0.891419 11.004911 -23.558764 2.727005 1.071817 -3.045781 1.394156 7.543473 14.906002 2.101301 -0.000000 -67.705900
4.879642 17.425078 1.206895 -178.885089 -56.176786 -162.484737 -11.054909 1.721905 -5.283351 -13.580799 31.243889 -20.200761 -3.499189 -0.735096 -1.414603 2.117734 15.334419 1.171128 2.534700 -0.000000 -36.127200 9.384464 0.417755 3.313003 -0.975264 11.028969 -23.561345 2.709261 1.060206 -3.019951 1.390336 7.555598 14.870230 2.106100 -0.000000 -67.757000
4.890108 17.423069 1.206730 -179.035938 -56.143799 -162.359109 -11.038488 1.699615 -5.307356 -13.617805 31.107663 -20.274247 -3.490755 -0.716727 -1.113110 2.152724 15.521571 1.003561 2.525600 0.000000 -36.016400 9.381219 0.428894 3.294571 -1.064968 11.064470 -23.582050 2.690696 1.048179 -2.988315 1.386577 7.568424 14.831837 2.110901 -0.000000 -67.808700
